<?xml version="1.0" encoding="UTF-8" standalone="no"?>
<!-- Created with Inkscape (http://www.inkscape.org/) -->

<svg
   width="52.289391mm"
   height="11.258883mm"
   viewBox="0 0 52.289391 11.258883"
   version="1.1"
   id="svg5"
   sodipodi:docname="rough.svg"
   inkscape:version="1.2.2 (1:1.2.2+202212051550+b0a8486541)"
   xmlns:inkscape="http://www.inkscape.org/namespaces/inkscape"
   xmlns:sodipodi="http://sodipodi.sourceforge.net/DTD/sodipodi-0.dtd"
   xmlns="http://www.w3.org/2000/svg"
   xmlns:svg="http://www.w3.org/2000/svg"
   xmlns:ns1="http://wanglongqi.github.io/WriteTeX">
  <sodipodi:namedview
     id="namedview7"
     pagecolor="#ffffff"
     bordercolor="#666666"
     borderopacity="1.0"
     inkscape:pageshadow="2"
     inkscape:pageopacity="0.0"
     inkscape:pagecheckerboard="0"
     inkscape:document-units="mm"
     showgrid="true"
     inkscape:zoom="4.3994184"
     inkscape:cx="47.960885"
     inkscape:cy="36.709398"
     inkscape:window-width="2560"
     inkscape:window-height="1376"
     inkscape:window-x="0"
     inkscape:window-y="27"
     inkscape:window-maximized="1"
     inkscape:current-layer="layer1"
     fit-margin-top="0"
     fit-margin-left="0"
     fit-margin-right="0"
     fit-margin-bottom="0"
     inkscape:showpageshadow="2"
     inkscape:deskcolor="#d1d1d1" />
  <defs
     id="defs2" />
  <g
     inkscape:label="Layer 1"
     inkscape:groupmode="layer"
     id="layer1"
     transform="translate(-84.93555,-114.43351)">
    <g
       ns1:text="$\mathcal{ROUGH}$"
       transform="matrix(1.369902,0,0,1.369902,-159.98529,-27.981156)"
       id="g6824"
       inkscape:export-filename="rough_white.png"
       inkscape:export-xdpi="497.42001"
       inkscape:export-ydpi="497.42001"
       style="fill:#000000">
      <g
         id="surface1"
         style="fill:#000000">
        <g
           style="fill:#000000;fill-opacity:1"
           id="g6809">
          <path
             style="stroke:none;fill:#000000"
             d="m 4.03125,-6.265625 c 1.921875,0 2.421875,0.46875 2.421875,1.125 0,0.609375 -0.484375,1.8125 -2.125,1.875 C 3.84375,-3.25 3.5,-2.90625 3.5,-2.796875 c 0,0.0625 0.03125,0.0625 0.046875,0.0625 0.421875,0.078125 0.625,0.265625 1.140625,1.453125 0.453125,1.046875 0.71875,1.5 1.296875,1.5 1.21875,0 2.359375,-1.21875 2.359375,-1.4375 0,-0.078125 -0.078125,-0.078125 -0.109375,-0.078125 -0.125,0 -0.515625,0.140625 -0.71875,0.421875 -0.15625,0.234375 -0.375,0.546875 -0.859375,0.546875 -0.515625,0 -0.828125,-0.703125 -1.15625,-1.484375 -0.21875,-0.5 -0.390625,-0.875 -0.625,-1.140625 1.4375,-0.53125 2.421875,-1.578125 2.421875,-2.609375 0,-1.25 -1.671875,-1.25 -3.1875,-1.25 -0.984375,0 -1.546875,0 -2.390625,0.359375 -1.328125,0.59375 -1.515625,1.421875 -1.515625,1.5 0,0.0625 0.046875,0.078125 0.109375,0.078125 0.15625,0 0.390625,-0.140625 0.46875,-0.1875 0.203125,-0.140625 0.234375,-0.203125 0.296875,-0.390625 0.140625,-0.40625 0.421875,-0.75 1.671875,-0.8125 -0.046875,0.609375 -0.140625,1.546875 -0.484375,3 C 2,-2.15625 1.640625,-1.0625 1.203125,0.015625 c -0.0625,0.109375 -0.0625,0.125 -0.0625,0.140625 0,0.0625 0.078125,0.0625 0.109375,0.0625 0.203125,0 0.609375,-0.234375 0.71875,-0.421875 0.03125,-0.0625 1.296875,-2.875 1.59375,-6.0625 z m 0,0"
             transform="translate(178.584,110.991)"
             id="path6805" />
          <path
             style="stroke:none;fill:#000000"
             d="m 7.75,-4.8125 c 0,-1.265625 -0.5625,-2.21875 -1.78125,-2.21875 -1.03125,0 -1.90625,0.84375 -1.984375,0.90625 -0.796875,0.78125 -1.09375,1.671875 -1.09375,1.703125 0,0.0625 0.046875,0.0625 0.09375,0.0625 0.203125,0 0.359375,-0.09375 0.5,-0.203125 0.1875,-0.125 0.1875,-0.15625 0.296875,-0.390625 0.09375,-0.203125 0.328125,-0.6875 0.6875,-1.109375 0.25,-0.265625 0.453125,-0.421875 0.84375,-0.421875 0.96875,0 1.578125,0.796875 1.578125,2.109375 0,2.03125 -1.4375,4.046875 -3.28125,4.046875 -1.421875,0 -2.1875,-1.125 -2.1875,-2.546875 0,-1.359375 0.6875,-2.859375 2.140625,-3.71875 0.109375,-0.0625 0.40625,-0.234375 0.40625,-0.359375 0,-0.078125 -0.078125,-0.078125 -0.09375,-0.078125 -0.359375,0 -3.3125,1.59375 -3.3125,4.578125 0,1.390625 0.734375,2.671875 2.390625,2.671875 1.9375,0 4.796875,-1.953125 4.796875,-5.03125 z m 0,0"
             transform="translate(187.0273,110.991)"
             id="path6807" />
        </g>
        <g
           style="fill:#000000;fill-opacity:1"
           id="g6813">
          <path
             style="stroke:none;fill:#000000"
             d="M 4.921875,-2.953125 C 4.6875,-2.109375 4.34375,-0.875 4.34375,-0.109375 4.34375,0.15625 4.5,0.28125 4.75,0.28125 c 0.390625,0 1.140625,-0.4375 1.140625,-0.625 0,-0.0625 -0.046875,-0.078125 -0.09375,-0.078125 -0.125,0 -0.296875,0.09375 -0.40625,0.15625 C 5.25,-0.296875 5.1875,-0.390625 5.1875,-0.53125 c 0,-1.21875 1.125,-4.703125 1.421875,-5.4375 0.125,-0.28125 0.25,-0.6875 0.25,-0.765625 0,-0.078125 -0.0625,-0.078125 -0.09375,-0.078125 -0.21875,0 -0.671875,0.265625 -0.75,0.46875 C 5.890625,-6 5.875,-5.953125 5.75,-5.578125 c -0.328125,0.9375 -1.3125,2.59375 -2.296875,3.75 -0.3125,0.34375 -1.296875,1.5 -2,1.5 -0.46875,0 -0.78125,-0.40625 -0.78125,-1.0625 0,-0.703125 0.390625,-1.59375 1,-2.96875 0.359375,-0.8125 0.65625,-1.515625 0.65625,-1.96875 0,-0.46875 -0.328125,-0.484375 -0.5,-0.484375 -0.765625,0 -1.734375,0.625 -1.734375,0.828125 0,0.0625 0.078125,0.0625 0.109375,0.0625 0.125,0 0.3125,-0.078125 0.46875,-0.1875 0.0625,-0.046875 0.21875,-0.15625 0.5,-0.15625 0.21875,0 0.296875,0.140625 0.296875,0.359375 0,0.4375 -0.359375,1.265625 -0.765625,2.21875 -0.65625,1.5 -0.875,2.125 -0.875,2.703125 0,0.671875 0.265625,1.203125 0.96875,1.203125 0.625,0 1.53125,-0.40625 2.546875,-1.359375 0.6875,-0.640625 1.125,-1.234375 1.5625,-1.8125 z m 0,0"
             transform="translate(195.23748,110.991)"
             id="path6811" />
        </g>
        <g
           style="fill:#000000;fill-opacity:1"
           id="g6817">
          <path
             style="stroke:none;fill:#000000"
             d="M 4.34375,-1.578125 C 4.078125,-0.671875 3.8125,-0.21875 3.71875,-0.0625 3.328125,0.625 3.125,0.640625 2.78125,0.640625 c -0.171875,0 -0.875,-0.03125 -1.46875,-0.4375 -0.4375,0.03125 -0.796875,0.375 -0.796875,0.484375 0,0.09375 0.6875,0.5 1.609375,0.5 0.71875,0 1.890625,-0.375 2.640625,-2 C 5.03125,-1.375 5.1875,-1.9375 5.21875,-2.0625 5.421875,-2.75 5.625,-3.546875 5.625,-3.59375 c 0,-0.0625 -0.015625,-0.078125 -0.109375,-0.078125 -0.078125,0 -0.25,0.046875 -0.46875,0.1875 -0.21875,0.140625 -0.234375,0.1875 -0.296875,0.4375 -0.109375,0.34375 -0.6875,1.828125 -1.921875,1.828125 -0.96875,0 -1.546875,-0.796875 -1.546875,-1.921875 0,-0.765625 0.3125,-1.796875 0.890625,-2.484375 C 2.4375,-5.953125 2.9375,-6.484375 4.0625,-6.484375 c 0.1875,0 0.46875,0.03125 0.71875,0.109375 0.109375,0.03125 0.359375,0.109375 0.359375,0.4375 0,0.328125 -0.515625,0.96875 -0.5625,1.03125 -0.03125,0.046875 -0.0625,0.078125 -0.0625,0.125 0,0.0625 0.046875,0.0625 0.109375,0.0625 0.296875,0 0.625,-0.265625 0.890625,-0.640625 0.078125,-0.109375 0.46875,-0.65625 0.46875,-1 0,-0.40625 -0.296875,-0.515625 -0.421875,-0.546875 -0.375,-0.125 -0.703125,-0.125 -0.84375,-0.125 -2.25,0 -4.28125,1.984375 -4.28125,4.3125 0,1.015625 0.453125,2.046875 1.734375,2.046875 0.75,0 1.515625,-0.390625 2.171875,-0.90625 z m 0,0"
             transform="translate(202.45837,110.991)"
             id="path6815" />
        </g>
        <g
           style="fill:#000000;fill-opacity:1"
           id="g6821">
          <path
             style="stroke:none;fill:#000000"
             d="M 3.296875,-3.34375 C 3.421875,-3.8125 3.5625,-4.3125 3.65625,-4.796875 3.78125,-5.46875 3.84375,-6.125 3.84375,-6.25 c 0,-0.5625 -0.546875,-0.5625 -0.65625,-0.5625 -0.765625,0 -1.4375,0.28125 -1.90625,0.609375 C 0.46875,-5.65625 0.203125,-5 0.203125,-4.9375 c 0,0.0625 0.078125,0.0625 0.109375,0.0625 0.078125,0 0.546875,-0.125 0.75,-0.5 0.265625,-0.5 0.5625,-0.890625 1.453125,-0.890625 C 2.9375,-6.265625 3,-5.984375 3,-5.828125 3,-5.8125 2.96875,-5.34375 2.84375,-4.65625 2.796875,-4.375 2.765625,-4.203125 2.5625,-3.34375 H 2.203125 c -0.28125,0.015625 -0.734375,0.328125 -0.734375,0.484375 0,0.0625 0,0.0625 0.21875,0.0625 h 0.71875 c -0.203125,0.703125 -0.484375,1.65625 -0.9375,2.875 C 1.375,0.3125 1.375,0.328125 1.375,0.34375 c 0,0.0625 0.078125,0.0625 0.09375,0.0625 0.140625,0 0.453125,-0.125 0.65625,-0.328125 C 2.171875,0.015625 2.1875,0 2.234375,-0.09375 2.578125,-0.984375 2.875,-1.875 3.140625,-2.796875 h 2.25 c 0.109375,0 0.296875,0 0.453125,-0.09375 -0.109375,0.421875 -0.515625,2.046875 -0.515625,2.828125 0,0.296875 0.171875,0.546875 0.59375,0.546875 1.328125,0 2.0625,-0.828125 2.0625,-1.140625 0,-0.0625 -0.046875,-0.078125 -0.09375,-0.078125 -0.078125,0 -0.609375,0.140625 -0.765625,0.53125 C 7.09375,-0.125 7.078125,-0.125 6.890625,-0.09375 6.78125,-0.0625 6.59375,-0.0625 6.578125,-0.0625 c -0.171875,0 -0.40625,-0.109375 -0.40625,-0.421875 0,-0.125 0.0625,-0.671875 0.09375,-0.890625 C 6.4375,-2.484375 6.921875,-4.359375 7.78125,-6.625 7.8125,-6.703125 7.8125,-6.71875 7.8125,-6.734375 7.8125,-6.8125 7.75,-6.8125 7.71875,-6.8125 c -0.15625,0 -0.4375,0.140625 -0.625,0.3125 -0.015625,0.015625 -0.078125,0.0625 -0.109375,0.15625 -0.40625,0.984375 -0.71875,1.984375 -1.015625,3 z m 0,0"
             transform="translate(208.97292,110.991)"
             id="path6819" />
        </g>
      </g>
    </g>
  </g>
</svg>
